<?xml version="1.0" standalone="no"?>
<!DOCTYPE svg PUBLIC "-//W3C//DTD SVG 1.1//EN" "http://www.w3.org/Graphics/SVG/1.1/DTD/svg11.dtd" >
<svg xmlns="http://www.w3.org/2000/svg">
<metadata>
This is a custom SVG webfont generated by Font Squirrel.
Copyright   : Copyright c 2008 by Jay Hilgert All rights reserved
Designer    : Jay Hilgert
Foundry     : Jay Hilgert
Foundry URL : httpwwwmyfontscom
</metadata>
<defs>
<font id="webfontxFGqCYaf" horiz-adv-x="1323" >
<font-face units-per-em="2048" ascent="1536" descent="-512" />
<missing-glyph horiz-adv-x="518" />
<glyph unicode=" "  horiz-adv-x="518" />
<glyph unicode="&#x09;" horiz-adv-x="518" />
<glyph unicode="&#xa0;" horiz-adv-x="518" />
<glyph unicode="A" d="M1227 461q18 -6 41.5 -25.5t23.5 -42.5q0 -31 -33.5 -49t-62.5 -18q-23 0 -32 5t-40 5l68 -132q33 -67 57 -134q4 -12 4 -19q0 -25 -23.5 -36t-55.5 -11q-39 0 -72 14.5t-43 38.5q-33 78 -72 152t-63 149q-53 0 -105.5 -9t-104.5 -19.5t-104.5 -19.5t-103.5 -9h-16 q-15 0 -33.5 6t-34.5 19.5t-16 38.5q0 29 30.5 49t77.5 34.5t104.5 22.5t109.5 12t93 6.5t58 4.5q-41 174 -94.5 346t-139.5 338l-99 -297l-100 -297q-10 -27 -24 -81t-34.5 -120t-46.5 -134.5t-54.5 -125.5t-62.5 -93t-70 -36q-20 0 -44 7t-42.5 18.5t-27.5 25.5 q-5 8 -5 16q0 7 4 15l138 296q69 153 127 308.5t105.5 312t77.5 310.5q-4 6 -6 4t-2 4q0 10 3 30.5t11.5 41t22.5 36t37 15.5q18 0 39.5 -6.5t40.5 -14.5q106 -82 172.5 -190.5t113 -230.5t82 -250t80.5 -248q33 -8 72 -16.5z" />
<glyph unicode="B" horiz-adv-x="1454" d="M1124 588q84 -33 150.5 -86t83.5 -135q6 -33 6 -62q0 -64 -31 -111q-45 -69 -133 -112t-209 -61.5t-252 -22.5l-95 -2q-83 0 -165 5q-129 7 -233 19q-35 4 -67 26t-32 65q0 35 27 45t62 10l181 -18q99 -9 201 -11h46q79 0 155 5q98 7 180 32q88 25 129 78q34 44 35 90 q0 9 -2 18q-8 55 -66.5 99.5t-168.5 50.5q-119 -41 -242 -67.5t-250 -43.5q0 -41 -5 -73.5t-5 -81.5q0 -33 -27.5 -41t-61.5 1t-61.5 31.5t-27.5 51.5v112q-69 37 -69 84q0 42 69 62q0 147 1 291.5t9 293.5q0 39 26.5 47.5t57.5 -1t57.5 -32t26.5 -46.5q8 -135 9 -267.5 t1 -265.5q27 -1 53 -1q159 0 292 43q155 50 255.5 131t135.5 177q16 42 16 82q0 51 -26 99q-46 84 -184 141t-386 61q-10 0 -20 1q-99 0 -200 -19q-112 -20 -212 -70q-25 -12 -60 1.5t-58 36.5q-28 28 -28 56q0 23 33 37q63 39 135 60.5t147.5 32t153.5 11.5h52q51 0 102 -1 q147 -6 283.5 -45t241 -101.5t169 -145.5t69.5 -176v-14q0 -87 -59 -179q-63 -99 -215 -195z" />
<glyph unicode="C" horiz-adv-x="1282" d="M756 1442q35 0 65.5 -16.5t46.5 -49.5q8 -27 -2 -48t-45 -32q-125 -16 -230.5 -97t-182.5 -181q-84 -111 -140 -241q-43 -100 -42 -208q0 -32 3 -65q8 -104 58.5 -194.5t142.5 -133.5q58 -25 116 -25q36 0 71 10q93 26 161 85q109 76 171.5 187.5t97.5 236.5q12 33 47 38 q9 1 17 1l52 -12q35 -15 59 -45q17 -22 17 -45q0 -8 -2 -17q-16 -80 -51 -158t-86 -146.5t-114.5 -126t-139.5 -93.5q-120 -62 -242 -62q-19 0 -39 1q-141 11 -258 84t-193.5 195t-84.5 273q-1 15 -1 30q0 68 15 135q18 81 53 157.5t81 148.5t97 133q45 55 99.5 104.5 t116 87.5t128 61.5t138.5 27.5z" />
<glyph unicode="D" horiz-adv-x="1363" d="M1180 1153q90 -172 100 -359q1 -25 1 -51q0 -161 -56 -317q-37 -102 -106.5 -184t-161 -137.5t-196.5 -82.5q-92 -24 -185 -25q-14 0 -27 1q-106 4 -206.5 43t-182.5 115q-25 16 -19 40.5t29 32.5q21 10 45 10q15 0 31 -3q41 -10 65 -27q49 -45 107 -61q43 -12 88 -11 q15 0 31 1q61 5 123.5 26.5t119.5 50.5q123 66 185.5 173.5t95.5 238.5q14 86 14 171q0 60 -7 121q-17 144 -105 267q-74 90 -162 117q-46 14 -97 13q-47 0 -100 -11q-47 -8 -102.5 -23.5t-104.5 -42.5q10 -33 11.5 -63.5t1.5 -55.5q0 -211 -1 -414.5t-12 -408.5 q0 -37 -26.5 -47t-59 -3t-59.5 29.5t-27 51.5v118v719q-8 -10 -18 -12t-27 -10q-23 -16 -58.5 -16.5t-60.5 16.5q-8 8 -16 19.5t-13 23.5q-4 10 -5 20q0 14 14 23l147 74q74 37 149 66.5t152.5 48t159.5 18.5q15 1 31 0q64 0 127 -14q78 -17 147.5 -54t127 -91t98.5 -124z " />
<glyph unicode="E" horiz-adv-x="1280" d="M1040 160q14 0 34 -7.5t37 -19.5t29.5 -29.5t12.5 -37.5t-13.5 -34t-33.5 -14q-174 0 -342 -7t-346 -7h-105q-59 0 -113.5 8t-92 29.5t-37.5 64.5q0 18 17 25.5t40 7.5q0 145 -1 292t-1 296q0 117 2 233.5t10 233.5q0 23 14.5 34t34.5 11q37 0 77 -26.5t40 -63.5v-670 q82 0 165 11.5t175 11.5q16 0 36.5 -6.5t39 -18.5t31 -29.5t12.5 -39.5q0 -16 -12.5 -27.5t-28.5 -11.5q-72 -8 -154 -19.5t-161 -11.5q-29 0 -53.5 2t-49.5 6v-207q84 0 162 5l150 11l145 10q72 5 143 5q35 0 68.5 -3t68.5 -7zM1083 1413q16 -4 35 -10t35 -16.5t27.5 -25.5 t11.5 -36q0 -27 -22.5 -42t-45.5 -15q-78 0 -154.5 -1t-154.5 -1q-152 0 -307.5 -4.5t-306.5 -4.5q-31 0 -61.5 3.5t-57.5 13.5t-43 26.5t-16 45.5q0 14 10 27t39 18q147 23 296.5 31t297.5 8q106 0 209.5 -4.5t207.5 -12.5z" />
<glyph unicode="F" horiz-adv-x="1210" d="M1047 1403q16 0 35.5 -4t36 -13.5t27.5 -24.5t11 -36q0 -35 -31.5 -51.5t-56.5 -16.5q-113 23 -223 25q-25 0 -49 1l-172 -6q-111 -7 -221.5 -17.5t-223.5 -10.5q-33 0 -69.5 1t-68.5 9.5t-53.5 26t-21.5 47.5q0 16 13.5 29.5t42.5 17.5q154 18 319.5 32.5t331.5 14.5 q98 0 190.5 -5t182.5 -19zM602 489q16 0 36.5 -7t39 -19t31 -29.5t12.5 -38.5q0 -27 -35 -42t-85 -22t-105.5 -9.5t-94.5 -2.5q-37 0 -73.5 3.5t-71.5 11.5v-279q0 -25 -16.5 -36t-40.5 -11q-20 0 -44 7.5t-43.5 20.5t-31.5 29.5t-12 34.5v546q0 267 10 544q4 25 20.5 36 t38.5 11q18 0 40 -7t39 -19.5t28.5 -29t11.5 -34.5v-680q86 0 169 9t177 13z" />
<glyph unicode="G" horiz-adv-x="1445" d="M1380 772q16 -16 24 -29q3 -6 3 -14q0 -10 -4 -22q0 -12 -16.5 -21.5t-39 -14.5t-45 -7t-34.5 -5q1 -15 1 -29q0 -72 -25 -146q-30 -89 -84 -167.5t-125.5 -144.5t-147.5 -106q-120 -62 -243 -62q-19 0 -39 1q-142 11 -259 84t-193.5 197t-84.5 275q-1 15 -1 29 q0 69 16 136q19 81 54 158t81 147.5t97 133.5q94 111 216 191t266 88q35 0 65.5 -16.5t46.5 -49.5q10 -27 0 -48t-45 -32q-63 -8 -121.5 -33.5t-110.5 -63.5t-98.5 -84t-82.5 -97q-43 -55 -79 -115.5t-61.5 -126t-37.5 -135.5q-7 -40 -6 -81q0 -29 3 -58q4 -51 18.5 -100.5 t40 -92.5t61.5 -77.5t83 -55.5q58 -26 116 -25q35 0 69 9q93 25 161 84q92 68 152.5 164t95.5 206q-16 -10 -28.5 -11t-28.5 -1q-13 -3 -25 -3q-21 0 -40 9q-30 14 -46 39q-10 25 -1 47.5t34 32.5q59 16 128.5 27.5t129.5 27.5q49 8 102 15q8 1 17 1q42 0 71 -28z" />
<glyph unicode="H" horiz-adv-x="1378" d="M295 45q0 -35 -29 -42q-13 -3 -26 -3q-17 0 -36 5q-34 9 -61.5 32.5t-27.5 52.5v1200q-16 16 -29 40q-5 9 -5 18q0 12 11 22q8 8 16.5 18.5t16.5 26.5q16 20 45 20.5t56.5 -14t48 -38t20.5 -48.5v-1290zM1313 578q33 -24 33 -51q0 -19 -12 -32q-13 -15 -38.5 -19.5 t-50.5 11.5h-10h10h-10h-12h-11q-10 -111 -11 -215t-1 -215q0 -35 -29 -43q-13 -4 -28 -4q-16 0 -34 5q-34 9 -61.5 33t-27.5 54v340q-143 -49 -270 -116.5t-263 -120.5q-25 -12 -57.5 -3t-57 30.5t-33.5 48.5q-3 8 -3 15q0 18 16 32q61 51 144.5 91t174.5 72.5t181 61.5 t168 59q0 197 1 390.5t9 390.5q0 33 27 41q13 4 26 3q15 0 32 -4q32 -9 58.5 -33t26.5 -52q4 -20 7 -49t4 -101t1 -204v-359l51 -21q25 -9 50 -36zM1245 487q7 -7 9 -6q1 0 1 1q0 5 -10 5z" />
<glyph unicode="I" horiz-adv-x="559" d="M182 1339v35q4 39 34 50q16 6 34 7q15 0 31 -5q35 -9 62.5 -32.5t27.5 -54.5v-1292q0 -35 -32 -44q-16 -5 -33 -5t-36 5q-37 9 -68.5 33.5t-31.5 55.5z" />
<glyph unicode="J" horiz-adv-x="1247" d="M1087 934q12 -61 29 -123l32 -124q15 -62 26 -127q7 -46 7 -93q0 -19 -1 -37q-6 -147 -91 -254.5t-223 -148.5q-96 -26 -201 -27q-58 0 -118 8q-170 23 -316 105q-35 20 -68.5 45.5t-60 56.5t-43 67.5t-16.5 82.5q-1 10 -1 20q0 32 10 61q13 39 37 74t53.5 64.5 t60.5 54.5q14 12 49 8t65.5 -18.5t49 -36t0.5 -41.5l-53 -48q-30 -28 -51 -61.5t-30 -70.5q-3 -11 -2 -23q0 -26 13 -51q29 -63 89 -99t122 -53q55 -16 117 -23q29 -3 58 -3q33 0 66 4q61 8 118.5 31.5t105.5 68.5q41 41 57 90t16 101.5t-9 105.5t-21 105q-4 14 -18 70 l-32 133l-39 164l-38 163l-31 129q-12 53 -14 64q-8 33 8 49l24 24q14 14 37 14.5t47.5 -8t44 -23.5t27.5 -32q27 -68 39 -143l32 -146q14 -73 37 -149z" />
<glyph unicode="K" horiz-adv-x="1382" d="M1307 1317q-39 -96 -81 -189.5t-91.5 -181.5t-110.5 -168t-141 -149q78 -147 173 -280.5t183 -270.5q8 -14 5 -26.5t-11 -23t-19.5 -16.5t-19.5 -6q-37 0 -74 10.5t-53 34.5l-160 234q-82 119 -153 237q-94 -68 -203 -124t-219 -91v-256q0 -39 -31 -49q-15 -5 -32 -5 t-36 5q-37 10 -67.5 37t-30.5 61v170q-29 0 -52.5 10.5t-39.5 34.5q-21 24 -21 52q0 23 31 30q16 10 40 12.5t42 10.5q0 244 1 482.5t11 473.5q4 39 33 49q15 5 32 6q15 0 31 -5q34 -9 61.5 -32.5t27.5 -54.5v-862q113 49 213 119t186 147q74 68 131.5 145t105.5 159.5 t88 171.5l79 180q14 25 47 26q4 0 8 1l57 -12q33 -13 52 -40q12 -16 12 -34q1 -11 -4 -23z" />
<glyph unicode="L" horiz-adv-x="1067" d="M991 207q5 -11 6 -26q0 -8 -2 -16q-4 -26 -39 -26l-194 -33l-195 -32q-98 -25 -192 -42l-195 -36q-6 -1 -12 -1q-20 0 -42 10q-30 13 -47 34q-16 19 -17 38q0 21 38 32q2 0 6 2q8 4 9 8v168q0 274 1 548.5t9 548.5q0 33 27 41q13 4 26 4q16 0 33 -5q33 -9 59.5 -31.5 t26.5 -53.5q6 -43 6 -77v-78q0 -260 -1 -515t-11 -515q49 16 99 24t99 19l191 32l199 33q27 0 60.5 -14t51.5 -41z" />
<glyph unicode="M" horiz-adv-x="1351" d="M1268 82q4 -8 4 -21q0 -20 -13.5 -31.5t-30 -17.5t-31.5 -8t-19 -2q-63 0 -104.5 61.5t-65 148.5t-32.5 182t-9 165q-59 -100 -159.5 -155.5t-211.5 -55.5q-84 0 -164 35t-143 109q0 -78 3 -155t3 -153q0 -29 1 -61.5t-3 -62t-17.5 -49t-39.5 -19.5q-20 0 -44 9 t-44.5 23.5t-34 34t-13.5 37.5v817q0 96 -3 208t-19 204q-23 23 -23 43q0 29 24.5 46.5t53.5 17.5q61 0 91 -40t42.5 -97.5t14.5 -122t8 -113.5q14 -66 32.5 -162t46 -186t70.5 -154.5t107 -64.5q76 0 138 48t110.5 120.5t83 155.5t57.5 153q41 111 69.5 212t63.5 212 q6 23 26.5 32t43.5 9q20 0 41.5 -7.5t40 -18.5t30 -27.5t11.5 -34.5q0 -8 -5 -21q-49 -176 -68.5 -362.5t-19.5 -370.5q0 -61 3.5 -129t13.5 -134.5t29.5 -130t54.5 -116.5z" />
<glyph unicode="N" horiz-adv-x="1392" d="M1225 1401q41 -221 63 -448q17 -166 17 -333q0 -61 -2 -122q-6 -57 -13.5 -115.5t-24 -114t-44 -105.5t-72.5 -91q-49 -45 -109 -60q-38 -9 -76 -9q-22 0 -43 3q-60 8 -116.5 35t-102.5 63q-141 117 -243.5 256.5t-194.5 278.5v-164q0 -106 5 -218q2 -37 2 -74 q0 -73 -7 -142q-4 -33 -35 -38q-9 -1 -17 -1q-23 0 -48 9q-35 13 -61.5 39t-22.5 54v601v360q-25 74 -34 141.5t-9 141.5q4 29 34.5 50t65.5 28.5t62.5 -3t23.5 -43.5q0 -147 50.5 -279t123.5 -255q74 -147 164 -279.5t205 -255.5q25 -25 52.5 -49t58 -46.5t65.5 -40 t76 -25.5q41 25 59.5 106.5t22.5 194.5q2 45 1 93q0 72 -3 150q-6 131 -17.5 255t-24 227.5t-16.5 160.5q-4 20 0 37t14.5 29t25 20.5t26.5 12.5t33 7q10 2 19.5 1.5t19.5 -1.5q18 -3 32.5 -12.5t14.5 -29.5z" />
<glyph unicode="O" d="M1266 860q10 -57 10 -108q0 -139 -55.5 -274.5t-148.5 -241t-214 -170t-250 -64.5q-115 0 -215 47t-177 125t-121 181.5t-44 217.5q0 106 32 207t85 195q45 80 108.5 162t142.5 147.5t171 107.5t190 42q35 0 54.5 -12.5t31 -28t21.5 -30.5t26 -24q76 -33 135.5 -85 t103.5 -114.5t73 -134t41 -145.5zM1071 692q4 23 6 47.5t2 46.5q0 66 -15 127.5t-42 120.5q-45 80 -87 114t-80 48t-72.5 23.5t-65.5 40.5q-88 -39 -173 -116t-151.5 -174.5t-107.5 -209t-41 -217.5q0 -6 3 -37t14 -75t31.5 -93t54.5 -91t84 -69.5t122 -27.5q102 0 189 50 t153 129t111 175t65 188z" />
<glyph unicode="P" horiz-adv-x="1366" d="M1219 1219q53 -61 84.5 -133t39.5 -148q3 -26 3 -53q0 -49 -10 -99q-15 -76 -52 -145q-29 -68 -79 -118t-111.5 -88t-129 -63.5t-135.5 -41.5q-102 -16 -206 -22q-17 -1 -34 -1q-87 0 -171 23v-279q0 -35 -28 -42q-12 -3 -25 -3q-17 0 -36 5q-34 9 -61.5 33t-27.5 52v133 v156q-16 8 -28.5 16.5t-29.5 16.5q-25 16 -36 39.5t16 50.5q16 8 33.5 14t44.5 -4q0 152 1 301.5t9 298.5q0 37 26.5 48.5t57.5 3t57.5 -32t26.5 -52.5v-133q7 -126 7 -251.5t-7 -249.5q69 -17 139 -17q32 0 65 3q103 11 195 36q117 43 198 119t113 192q16 59 16.5 123 t-17 124.5t-53.5 114.5t-89 95q-76 59 -177 66q-28 2 -55 1q-74 0 -147 -12q-111 -16 -217 -52t-217 -68q-12 -8 -29.5 -11.5t-36 -0.5t-34 11.5t-23.5 20.5q-20 14 -20 32q0 28 32 48q152 59 302.5 102t310.5 54q20 1 40 1q129 0 257 -45q148 -52 248 -169z" />
<glyph unicode="Q" horiz-adv-x="1288" d="M1243 700q-4 -80 -27.5 -158.5t-62.5 -152.5t-92 -139.5t-117 -116.5q27 -49 44.5 -93t33.5 -95q8 -33 -20 -48q-26 -14 -62 -15h-5q-40 1 -78 17.5t-46 45.5l-15 50q-7 24 -16 40q-84 -31 -170 -33h-14q-78 0 -153 21q-81 23 -154.5 69.5t-130.5 118.5q-68 82 -97 180 q-26 89 -25 180v20q3 101 34.5 200.5t87.5 185.5q45 84 106.5 160.5t137 138t164.5 103.5t190 55q27 0 59.5 -20.5t40.5 -47.5q10 -8 11 -15.5t1 -17.5q92 -31 165 -97.5t123 -153.5t73 -186q17 -73 16 -144q0 -26 -2 -52zM834 367q0 -16 7 -26.5t15 -27.5q92 90 142.5 213 t58.5 240q0 86 -24.5 160.5t-65.5 150.5q-25 43 -71 84t-105 51q-27 0 -51.5 9.5t-51.5 31.5q-61 -29 -115.5 -71.5t-100.5 -95t-86 -108.5t-73 -110q-33 -72 -57.5 -151.5t-28.5 -159.5q-1 -13 0 -27q0 -66 17 -131q20 -78 80 -143q37 -47 84 -71.5t98 -30.5q17 -2 34 -2 q35 0 70 8q53 12 103 41q-18 35 -33.5 68.5t-32.5 74.5q-18 39 4.5 56.5t59.5 18.5h5l68 -13q38 -14 50 -39z" />
<glyph unicode="R" horiz-adv-x="1409" d="M1262 633q-33 -82 -102.5 -141.5t-151.5 -100.5q8 -31 43 -70l71 -85q37 -45 67 -90.5t30 -86.5q0 -33 -19.5 -52t-48.5 -19q-47 0 -80 31.5t-63.5 83t-64.5 115t-81 126.5q-72 -16 -147.5 -28.5t-149.5 -12.5q-88 0 -157 21q-10 -66 -11.5 -132.5t-1.5 -136.5 q0 -29 -16.5 -41t-40.5 -12q-18 0 -40 7t-40 21.5t-29.5 32t-11.5 39.5v289q-12 0 -27.5 6t-30 16.5t-24.5 25t-10 30.5q0 27 34 41t58 14q0 166 1 333t11 333l-63 -23q-23 -8 -55 -8q-31 0 -67 18.5t-36 47.5q0 20 33 43q160 66 319.5 110.5t329.5 44.5q121 0 234.5 -37.5 t201.5 -107.5t141.5 -169t53.5 -224q0 -63 -14 -127t-45 -125zM1106 778q18 68 18 135q0 74 -24.5 144.5t-74.5 124t-125 86t-173 32.5q-76 0 -158 -11t-174 -46q10 -33 11.5 -65.5t1.5 -65.5v-666q63 -18 139 -18q100 0 191 22.5t165 67.5t126 110.5t77 149.5z" />
<glyph unicode="S" horiz-adv-x="1292" d="M1063 561q86 -33 143.5 -103.5t57.5 -162.5q0 -90 -55.5 -147.5t-134.5 -91t-167 -46t-155 -12.5q-78 0 -172.5 12.5t-186.5 44t-173 85t-132 134.5q-25 25 -3.5 46.5t46.5 29.5q35 -2 78 -8t67 -35q43 -51 91.5 -81.5t106.5 -46t132 -20.5t170 -5q20 0 63.5 9t87.5 30.5 t76.5 57.5t32.5 89q0 68 -31.5 95.5t-78.5 34.5q-25 4 -53 4q-24 0 -50 -3q-55 -6 -102 -6q-70 0 -147.5 1t-151.5 10t-140.5 31.5t-117.5 66.5t-81 113t-30 171q0 133 53.5 239.5t141.5 180.5t202.5 114t239.5 40q94 0 192.5 -23t178.5 -70t130 -122.5t50 -180.5 q0 -37 -22.5 -53t-61.5 -16q-45 0 -87 22.5t-42 61.5q0 25 -5 55.5t-17.5 59t-33 52t-52.5 33.5q-92 27 -179 27q-39 0 -75 -5q-121 -17 -211 -75.5t-143.5 -153t-53.5 -206.5q0 -94 39 -141.5t99.5 -66t133.5 -18.5h146q98 0 196.5 -8t190.5 -43z" />
<glyph unicode="T" horiz-adv-x="1212" d="M1161 1372q8 -14 13.5 -29.5t5.5 -29.5q0 -27 -35 -41.5t-83 -22.5t-97.5 -12t-79.5 -8q-47 -4 -68.5 -5t-39 -2t-40.5 -3l-67 -7q14 -212 14 -432q0 -73 -2 -147q-6 -297 -6 -590q0 -29 -16.5 -40t-41.5 -11q-23 0 -47 8t-45.5 22.5t-35 33t-13.5 40.5q0 285 -1 563v33 q0 262 16 522q-76 0 -165 -4q-32 -1 -64 -1q-54 0 -103 4q-78 7 -130.5 33t-52.5 87q0 12 9.5 28.5t36.5 16.5q72 0 143.5 -6t152.5 -6q41 0 81 1t87 1q4 20 20.5 29.5t39.5 9.5q18 0 34.5 -6t33 -13.5t34 -13.5t37.5 -6q57 6 96 13.5t74 12.5t74 10t98 9q35 0 70.5 -8 t62.5 -33z" />
<glyph unicode="U" horiz-adv-x="1355" d="M199 1323q8 33 41 42q17 5 35 5q16 0 32 -4q35 -8 60.5 -31.5t21.5 -56.5q-12 -84 -33 -158l-42 -146q-22 -73 -41 -146.5t-27 -157.5q-2 -28 -2 -59q0 -38 3 -77q5 -73 24.5 -141.5t56.5 -129t96 -97.5q51 -29 106 -30h7q52 0 102 17q53 17 102.5 47.5t85.5 65.5 q109 100 169.5 227.5t76.5 264.5q7 56 7 113q0 81 -14 163q-24 139 -81 266q-23 37 0 56.5t61 21.5q5 0 9 1q33 0 68 -13q40 -14 53 -43q92 -186 110 -364q5 -48 5 -98q0 -134 -36 -279q-43 -154 -140 -286t-232 -208q-68 -43 -146 -65.5t-156.5 -22.5t-153.5 23.5 t-138 74.5q-106 76 -160.5 168t-72.5 195q-10 60 -10 122q0 44 5 90q12 110 38 220.5t56.5 219t53.5 210.5z" />
<glyph unicode="V" horiz-adv-x="1404" d="M1161 1368q-4 33 22.5 43t60.5 3t64.5 -28.5t34.5 -52.5q0 -86 -11 -169t-46 -169q-35 -94 -76 -179l-82 -171q-94 -143 -199.5 -287.5t-240.5 -255.5q-47 -37 -104.5 -64.5t-117.5 -35.5q-22 -3 -44 -3q-38 0 -76 9q-59 14 -110 62q-43 37 -70 86t-42 104t-22.5 113.5 t-11.5 113.5q-3 74 -3 148q0 154 14 307q22 225 57 449q0 20 14 29.5t35 11.5q8 1 16 0l25 -1q20 -3 33 -8q27 -8 52 -33q19 -19 19 -48q0 -9 -2 -19q-6 -57 -19.5 -160.5t-24.5 -227.5t-17 -255q-4 -79 -4 -151q0 -48 2 -93q4 -113 23.5 -193.5t62.5 -105.5q76 20 135 68.5 t113 101.5q111 119 202.5 252t167.5 277q68 121 119 254t51 278z" />
<glyph unicode="W" horiz-adv-x="1355" d="M1163 1405q18 12 43 12q39 0 77 -24.5t38 -57.5q0 -16 -27.5 -58t-56.5 -95q-47 -90 -85 -192.5t-64.5 -209t-41 -214t-14.5 -206.5q0 -74 8.5 -147.5t26.5 -144.5q0 -35 -27.5 -44.5t-56.5 -9.5q-35 8 -61.5 25.5t-34.5 50.5l-28 130q-15 75 -34 156l-38 159 q-19 78 -39.5 140t-42 100t-41.5 38q-45 0 -88.5 -46t-81 -119t-67.5 -162t-50.5 -174t-28.5 -156q-5 -41 -5 -71q0 -22 3 -38q4 -27 -20.5 -37t-46.5 -10q-39 0 -76 21.5t-37 56.5q4 119 9 235.5t5 237.5q0 203 -23.5 417t-99.5 416q-4 12 -4 17q0 16 14.5 23.5t36.5 7.5 q31 0 62 -12.5t41 -35.5q72 -154 106.5 -317.5t42.5 -329.5q23 35 49.5 69t60.5 61.5t73 45t86 17.5q43 0 85 -14.5t77.5 -41t61 -64.5t38.5 -83q0 16 5 30.5t5 30.5q23 90 54 181l63 170q23 72 57.5 145.5t91.5 120.5z" />
<glyph unicode="X" horiz-adv-x="1304" d="M1137 137q12 -4 27.5 -12t27.5 -19.5t19 -25.5q5 -9 5 -19q0 -6 -2 -12q-10 -35 -43 -44q-17 -5 -32 -5q-13 0 -25 4q-125 16 -239.5 65.5t-215.5 123.5q-100 -74 -213.5 -126.5t-230.5 -62.5q-15 -4 -31 -4q-18 0 -38 5q-36 9 -52 44t1.5 56.5t41.5 21.5q217 53 389 178 l-81 93q-40 44 -74 96q-133 193 -206 417t-83 457q0 33 27.5 50.5t62.5 17.5t64.5 -17.5t33.5 -50.5q10 -217 69.5 -414.5t176.5 -382.5q33 -43 59.5 -82.5t61.5 -72.5q86 86 133 166q125 176 185.5 381.5t70.5 416.5q4 33 34 44q19 7 40 8q12 0 24 -2q35 -6 62.5 -29 t27.5 -55q-10 -225 -81.5 -448.5t-196.5 -416.5q-33 -49 -74 -93l-92 -95q82 -49 174.5 -94.5t192.5 -61.5z" />
<glyph unicode="Y" horiz-adv-x="1273" d="M1032 1376q0 33 30 44q19 7 40 8q11 0 23 -3q34 -6 61.5 -27.5t23.5 -54.5q0 -135 -30.5 -283.5t-89 -292.5t-144.5 -277.5t-196.5 -236.5t-244.5 -170t-290 -77q-15 -4 -31 -4q-18 0 -38 5q-36 9 -52 44q-8 13 -8 24q0 13 10 23q18 20 54 31q98 27 198.5 62.5 t175.5 113.5q-41 41 -81 89t-72 98q-135 193 -202 415.5t-75 458.5q-4 33 22.5 49.5t60.5 16.5t63.5 -16.5t29.5 -49.5q16 -217 77 -419t177 -378q25 -41 56.5 -80.5t64.5 -72.5q35 33 67.5 74.5t65.5 91.5q117 174 177.5 380.5t76.5 413.5z" />
<glyph unicode="Z" horiz-adv-x="1376" d="M1300 1399q8 -14 9 -27q0 -16 -15.5 -29.5t-38.5 -15.5q33 -23 33 -53q0 -16 -10 -27q-78 -109 -166 -205t-184 -191l-200 -193l-212 -205l-120 -146l-113 -145q115 0 218 7t203.5 16.5t198.5 16.5t201 7q18 0 40.5 -7t44 -19.5t36 -31t14.5 -40.5q0 -20 -15.5 -37 t-39.5 -17l-405 -40q-206 -19 -404 -19q-45 0 -99.5 5t-102.5 20.5t-80 45t-32 81.5q0 45 27 94t63.5 97t76.5 91t67 78q96 106 197 203l202 188l203 186q100 94 197 199q-49 -6 -116 -11t-140.5 -8t-152.5 -4t-155 -1q-104 0 -191 3t-140 9q-8 0 -21.5 8t-26 20.5t-21.5 28 t-9 29.5q0 12 10 23.5t24.5 20.5t30 15t25.5 6q20 0 63 -2t99.5 -4t125 -4t142.5 -2q80 0 160 1t151.5 3t132 6t99.5 9q20 4 35 4q25 0 47 -9.5t34 -27.5z" />
<glyph unicode="a" d="M1227 461q18 -6 41.5 -25.5t23.5 -42.5q0 -31 -33.5 -49t-62.5 -18q-23 0 -32 5t-40 5l68 -132q33 -67 57 -134q4 -12 4 -19q0 -25 -23.5 -36t-55.5 -11q-39 0 -72 14.5t-43 38.5q-33 78 -72 152t-63 149q-53 0 -105.5 -9t-104.5 -19.5t-104.5 -19.5t-103.5 -9h-16 q-15 0 -33.5 6t-34.5 19.5t-16 38.5q0 29 30.5 49t77.5 34.5t104.5 22.5t109.5 12t93 6.5t58 4.5q-41 174 -94.5 346t-139.5 338l-99 -297l-100 -297q-10 -27 -24 -81t-34.5 -120t-46.5 -134.5t-54.5 -125.5t-62.5 -93t-70 -36q-20 0 -44 7t-42.5 18.5t-27.5 25.5 q-5 8 -5 16q0 7 4 15l138 296q69 153 127 308.5t105.5 312t77.5 310.5q-4 6 -6 4t-2 4q0 10 3 30.5t11.5 41t22.5 36t37 15.5q18 0 39.5 -6.5t40.5 -14.5q106 -82 172.5 -190.5t113 -230.5t82 -250t80.5 -248q33 -8 72 -16.5z" />
<glyph unicode="b" horiz-adv-x="1454" d="M1124 588q84 -33 150.5 -86t83.5 -135q6 -33 6 -62q0 -64 -31 -111q-45 -69 -133 -112t-209 -61.5t-252 -22.5l-95 -2q-83 0 -165 5q-129 7 -233 19q-35 4 -67 26t-32 65q0 35 27 45t62 10l181 -18q99 -9 201 -11h46q79 0 155 5q98 7 180 32q88 25 129 78q34 44 35 90 q0 9 -2 18q-8 55 -66.5 99.5t-168.5 50.5q-119 -41 -242 -67.5t-250 -43.5q0 -41 -5 -73.5t-5 -81.5q0 -33 -27.5 -41t-61.5 1t-61.5 31.5t-27.5 51.5v112q-69 37 -69 84q0 42 69 62q0 147 1 291.5t9 293.5q0 39 26.5 47.5t57.5 -1t57.5 -32t26.5 -46.5q8 -135 9 -267.5 t1 -265.5q27 -1 53 -1q159 0 292 43q155 50 255.5 131t135.5 177q16 42 16 82q0 51 -26 99q-46 84 -184 141t-386 61q-10 0 -20 1q-99 0 -200 -19q-112 -20 -212 -70q-25 -12 -60 1.5t-58 36.5q-28 28 -28 56q0 23 33 37q63 39 135 60.5t147.5 32t153.5 11.5h52q51 0 102 -1 q147 -6 283.5 -45t241 -101.5t169 -145.5t69.5 -176v-14q0 -87 -59 -179q-63 -99 -215 -195z" />
<glyph unicode="c" horiz-adv-x="1282" d="M756 1442q35 0 65.5 -16.5t46.5 -49.5q8 -27 -2 -48t-45 -32q-125 -16 -230.5 -97t-182.5 -181q-84 -111 -140 -241q-43 -100 -42 -208q0 -32 3 -65q8 -104 58.5 -194.5t142.5 -133.5q58 -25 116 -25q36 0 71 10q93 26 161 85q109 76 171.5 187.5t97.5 236.5q12 33 47 38 q9 1 17 1l52 -12q35 -15 59 -45q17 -22 17 -45q0 -8 -2 -17q-16 -80 -51 -158t-86 -146.5t-114.5 -126t-139.5 -93.5q-120 -62 -242 -62q-19 0 -39 1q-141 11 -258 84t-193.5 195t-84.5 273q-1 15 -1 30q0 68 15 135q18 81 53 157.5t81 148.5t97 133q45 55 99.5 104.5 t116 87.5t128 61.5t138.5 27.5z" />
<glyph unicode="d" horiz-adv-x="1363" d="M1180 1153q90 -172 100 -359q1 -25 1 -51q0 -161 -56 -317q-37 -102 -106.5 -184t-161 -137.5t-196.5 -82.5q-92 -24 -185 -25q-14 0 -27 1q-106 4 -206.5 43t-182.5 115q-25 16 -19 40.5t29 32.5q21 10 45 10q15 0 31 -3q41 -10 65 -27q49 -45 107 -61q43 -12 88 -11 q15 0 31 1q61 5 123.5 26.5t119.5 50.5q123 66 185.5 173.5t95.5 238.5q14 86 14 171q0 60 -7 121q-17 144 -105 267q-74 90 -162 117q-46 14 -97 13q-47 0 -100 -11q-47 -8 -102.5 -23.5t-104.5 -42.5q10 -33 11.5 -63.5t1.5 -55.5q0 -211 -1 -414.5t-12 -408.5 q0 -37 -26.5 -47t-59 -3t-59.5 29.5t-27 51.5v118v719q-8 -10 -18 -12t-27 -10q-23 -16 -58.5 -16.5t-60.5 16.5q-8 8 -16 19.5t-13 23.5q-4 10 -5 20q0 14 14 23l147 74q74 37 149 66.5t152.5 48t159.5 18.5q15 1 31 0q64 0 127 -14q78 -17 147.5 -54t127 -91t98.5 -124z " />
<glyph unicode="e" horiz-adv-x="1280" d="M1040 160q14 0 34 -7.5t37 -19.5t29.5 -29.5t12.5 -37.5t-13.5 -34t-33.5 -14q-174 0 -342 -7t-346 -7h-105q-59 0 -113.5 8t-92 29.5t-37.5 64.5q0 18 17 25.5t40 7.5q0 145 -1 292t-1 296q0 117 2 233.5t10 233.5q0 23 14.5 34t34.5 11q37 0 77 -26.5t40 -63.5v-670 q82 0 165 11.5t175 11.5q16 0 36.5 -6.5t39 -18.5t31 -29.5t12.5 -39.5q0 -16 -12.5 -27.5t-28.5 -11.5q-72 -8 -154 -19.5t-161 -11.5q-29 0 -53.5 2t-49.5 6v-207q84 0 162 5l150 11l145 10q72 5 143 5q35 0 68.5 -3t68.5 -7zM1083 1413q16 -4 35 -10t35 -16.5t27.5 -25.5 t11.5 -36q0 -27 -22.5 -42t-45.5 -15q-78 0 -154.5 -1t-154.5 -1q-152 0 -307.5 -4.5t-306.5 -4.5q-31 0 -61.5 3.5t-57.5 13.5t-43 26.5t-16 45.5q0 14 10 27t39 18q147 23 296.5 31t297.5 8q106 0 209.5 -4.5t207.5 -12.5z" />
<glyph unicode="f" horiz-adv-x="1210" d="M1047 1403q16 0 35.5 -4t36 -13.5t27.5 -24.5t11 -36q0 -35 -31.5 -51.5t-56.5 -16.5q-113 23 -223 25q-25 0 -49 1l-172 -6q-111 -7 -221.5 -17.5t-223.5 -10.5q-33 0 -69.5 1t-68.5 9.5t-53.5 26t-21.5 47.5q0 16 13.5 29.5t42.5 17.5q154 18 319.5 32.5t331.5 14.5 q98 0 190.5 -5t182.5 -19zM602 489q16 0 36.5 -7t39 -19t31 -29.5t12.5 -38.5q0 -27 -35 -42t-85 -22t-105.5 -9.5t-94.5 -2.5q-37 0 -73.5 3.5t-71.5 11.5v-279q0 -25 -16.5 -36t-40.5 -11q-20 0 -44 7.5t-43.5 20.5t-31.5 29.5t-12 34.5v546q0 267 10 544q4 25 20.5 36 t38.5 11q18 0 40 -7t39 -19.5t28.5 -29t11.5 -34.5v-680q86 0 169 9t177 13z" />
<glyph unicode="g" horiz-adv-x="1445" d="M1380 772q16 -16 24 -29q3 -6 3 -14q0 -10 -4 -22q0 -12 -16.5 -21.5t-39 -14.5t-45 -7t-34.5 -5q1 -15 1 -29q0 -72 -25 -146q-30 -89 -84 -167.5t-125.5 -144.5t-147.5 -106q-120 -62 -243 -62q-19 0 -39 1q-142 11 -259 84t-193.5 197t-84.5 275q-1 15 -1 29 q0 69 16 136q19 81 54 158t81 147.5t97 133.5q94 111 216 191t266 88q35 0 65.5 -16.5t46.5 -49.5q10 -27 0 -48t-45 -32q-63 -8 -121.5 -33.5t-110.5 -63.5t-98.5 -84t-82.5 -97q-43 -55 -79 -115.5t-61.5 -126t-37.5 -135.5q-7 -40 -6 -81q0 -29 3 -58q4 -51 18.5 -100.5 t40 -92.5t61.5 -77.5t83 -55.5q58 -26 116 -25q35 0 69 9q93 25 161 84q92 68 152.5 164t95.5 206q-16 -10 -28.5 -11t-28.5 -1q-13 -3 -25 -3q-21 0 -40 9q-30 14 -46 39q-10 25 -1 47.5t34 32.5q59 16 128.5 27.5t129.5 27.5q49 8 102 15q8 1 17 1q42 0 71 -28z" />
<glyph unicode="h" horiz-adv-x="1378" d="M295 45q0 -35 -29 -42q-13 -3 -26 -3q-17 0 -36 5q-34 9 -61.5 32.5t-27.5 52.5v1200q-16 16 -29 40q-5 9 -5 18q0 12 11 22q8 8 16.5 18.5t16.5 26.5q16 20 45 20.5t56.5 -14t48 -38t20.5 -48.5v-1290zM1313 578q33 -24 33 -51q0 -19 -12 -32q-13 -15 -38.5 -19.5 t-50.5 11.5h-10h10h-10h-12h-11q-10 -111 -11 -215t-1 -215q0 -35 -29 -43q-13 -4 -28 -4q-16 0 -34 5q-34 9 -61.5 33t-27.5 54v340q-143 -49 -270 -116.5t-263 -120.5q-25 -12 -57.5 -3t-57 30.5t-33.5 48.5q-3 8 -3 15q0 18 16 32q61 51 144.5 91t174.5 72.5t181 61.5 t168 59q0 197 1 390.5t9 390.5q0 33 27 41q13 4 26 3q15 0 32 -4q32 -9 58.5 -33t26.5 -52q4 -20 7 -49t4 -101t1 -204v-359l51 -21q25 -9 50 -36zM1245 487q7 -7 9 -6q1 0 1 1q0 5 -10 5z" />
<glyph unicode="i" horiz-adv-x="559" d="M182 1339v35q4 39 34 50q16 6 34 7q15 0 31 -5q35 -9 62.5 -32.5t27.5 -54.5v-1292q0 -35 -32 -44q-16 -5 -33 -5t-36 5q-37 9 -68.5 33.5t-31.5 55.5z" />
<glyph unicode="j" horiz-adv-x="1247" d="M1087 934q12 -61 29 -123l32 -124q15 -62 26 -127q7 -46 7 -93q0 -19 -1 -37q-6 -147 -91 -254.5t-223 -148.5q-96 -26 -201 -27q-58 0 -118 8q-170 23 -316 105q-35 20 -68.5 45.5t-60 56.5t-43 67.5t-16.5 82.5q-1 10 -1 20q0 32 10 61q13 39 37 74t53.5 64.5 t60.5 54.5q14 12 49 8t65.5 -18.5t49 -36t0.5 -41.5l-53 -48q-30 -28 -51 -61.5t-30 -70.5q-3 -11 -2 -23q0 -26 13 -51q29 -63 89 -99t122 -53q55 -16 117 -23q29 -3 58 -3q33 0 66 4q61 8 118.5 31.5t105.5 68.5q41 41 57 90t16 101.5t-9 105.5t-21 105q-4 14 -18 70 l-32 133l-39 164l-38 163l-31 129q-12 53 -14 64q-8 33 8 49l24 24q14 14 37 14.5t47.5 -8t44 -23.5t27.5 -32q27 -68 39 -143l32 -146q14 -73 37 -149z" />
<glyph unicode="k" horiz-adv-x="1382" d="M1307 1317q-39 -96 -81 -189.5t-91.5 -181.5t-110.5 -168t-141 -149q78 -147 173 -280.5t183 -270.5q8 -14 5 -26.5t-11 -23t-19.5 -16.5t-19.5 -6q-37 0 -74 10.5t-53 34.5l-160 234q-82 119 -153 237q-94 -68 -203 -124t-219 -91v-256q0 -39 -31 -49q-15 -5 -32 -5 t-36 5q-37 10 -67.5 37t-30.5 61v170q-29 0 -52.5 10.5t-39.5 34.5q-21 24 -21 52q0 23 31 30q16 10 40 12.5t42 10.5q0 244 1 482.5t11 473.5q4 39 33 49q15 5 32 6q15 0 31 -5q34 -9 61.5 -32.5t27.5 -54.5v-862q113 49 213 119t186 147q74 68 131.5 145t105.5 159.5 t88 171.5l79 180q14 25 47 26q4 0 8 1l57 -12q33 -13 52 -40q12 -16 12 -34q1 -11 -4 -23z" />
<glyph unicode="l" horiz-adv-x="1067" d="M991 207q5 -11 6 -26q0 -8 -2 -16q-4 -26 -39 -26l-194 -33l-195 -32q-98 -25 -192 -42l-195 -36q-6 -1 -12 -1q-20 0 -42 10q-30 13 -47 34q-16 19 -17 38q0 21 38 32q2 0 6 2q8 4 9 8v168q0 274 1 548.5t9 548.5q0 33 27 41q13 4 26 4q16 0 33 -5q33 -9 59.5 -31.5 t26.5 -53.5q6 -43 6 -77v-78q0 -260 -1 -515t-11 -515q49 16 99 24t99 19l191 32l199 33q27 0 60.5 -14t51.5 -41z" />
<glyph unicode="m" horiz-adv-x="1351" d="M1268 82q4 -8 4 -21q0 -20 -13.5 -31.5t-30 -17.5t-31.5 -8t-19 -2q-63 0 -104.5 61.5t-65 148.5t-32.5 182t-9 165q-59 -100 -159.5 -155.5t-211.5 -55.5q-84 0 -164 35t-143 109q0 -78 3 -155t3 -153q0 -29 1 -61.5t-3 -62t-17.5 -49t-39.5 -19.5q-20 0 -44 9 t-44.5 23.5t-34 34t-13.5 37.5v817q0 96 -3 208t-19 204q-23 23 -23 43q0 29 24.5 46.5t53.5 17.5q61 0 91 -40t42.5 -97.5t14.5 -122t8 -113.5q14 -66 32.5 -162t46 -186t70.5 -154.5t107 -64.5q76 0 138 48t110.5 120.5t83 155.5t57.5 153q41 111 69.5 212t63.5 212 q6 23 26.5 32t43.5 9q20 0 41.5 -7.5t40 -18.5t30 -27.5t11.5 -34.5q0 -8 -5 -21q-49 -176 -68.5 -362.5t-19.5 -370.5q0 -61 3.5 -129t13.5 -134.5t29.5 -130t54.5 -116.5z" />
<glyph unicode="n" horiz-adv-x="1392" d="M1225 1401q41 -221 63 -448q17 -166 17 -333q0 -61 -2 -122q-6 -57 -13.5 -115.5t-24 -114t-44 -105.5t-72.5 -91q-49 -45 -109 -60q-38 -9 -76 -9q-22 0 -43 3q-60 8 -116.5 35t-102.5 63q-141 117 -243.5 256.5t-194.5 278.5v-164q0 -106 5 -218q2 -37 2 -74 q0 -73 -7 -142q-4 -33 -35 -38q-9 -1 -17 -1q-23 0 -48 9q-35 13 -61.5 39t-22.5 54v601v360q-25 74 -34 141.5t-9 141.5q4 29 34.5 50t65.5 28.5t62.5 -3t23.5 -43.5q0 -147 50.5 -279t123.5 -255q74 -147 164 -279.5t205 -255.5q25 -25 52.5 -49t58 -46.5t65.5 -40 t76 -25.5q41 25 59.5 106.5t22.5 194.5q2 45 1 93q0 72 -3 150q-6 131 -17.5 255t-24 227.5t-16.5 160.5q-4 20 0 37t14.5 29t25 20.5t26.5 12.5t33 7q10 2 19.5 1.5t19.5 -1.5q18 -3 32.5 -12.5t14.5 -29.5z" />
<glyph unicode="o" d="M1266 860q10 -57 10 -108q0 -139 -55.5 -274.5t-148.5 -241t-214 -170t-250 -64.5q-115 0 -215 47t-177 125t-121 181.5t-44 217.5q0 106 32 207t85 195q45 80 108.5 162t142.5 147.5t171 107.5t190 42q35 0 54.5 -12.5t31 -28t21.5 -30.5t26 -24q76 -33 135.5 -85 t103.5 -114.5t73 -134t41 -145.5zM1071 692q4 23 6 47.5t2 46.5q0 66 -15 127.5t-42 120.5q-45 80 -87 114t-80 48t-72.5 23.5t-65.5 40.5q-88 -39 -173 -116t-151.5 -174.5t-107.5 -209t-41 -217.5q0 -6 3 -37t14 -75t31.5 -93t54.5 -91t84 -69.5t122 -27.5q102 0 189 50 t153 129t111 175t65 188z" />
<glyph unicode="p" horiz-adv-x="1366" d="M1219 1219q53 -61 84.5 -133t39.5 -148q3 -26 3 -53q0 -49 -10 -99q-15 -76 -52 -145q-29 -68 -79 -118t-111.5 -88t-129 -63.5t-135.5 -41.5q-102 -16 -206 -22q-17 -1 -34 -1q-87 0 -171 23v-279q0 -35 -28 -42q-12 -3 -25 -3q-17 0 -36 5q-34 9 -61.5 33t-27.5 52v133 v156q-16 8 -28.5 16.5t-29.5 16.5q-25 16 -36 39.5t16 50.5q16 8 33.5 14t44.5 -4q0 152 1 301.5t9 298.5q0 37 26.5 48.5t57.5 3t57.5 -32t26.5 -52.5v-133q7 -126 7 -251.5t-7 -249.5q69 -17 139 -17q32 0 65 3q103 11 195 36q117 43 198 119t113 192q16 59 16.5 123 t-17 124.5t-53.5 114.5t-89 95q-76 59 -177 66q-28 2 -55 1q-74 0 -147 -12q-111 -16 -217 -52t-217 -68q-12 -8 -29.5 -11.5t-36 -0.5t-34 11.5t-23.5 20.5q-20 14 -20 32q0 28 32 48q152 59 302.5 102t310.5 54q20 1 40 1q129 0 257 -45q148 -52 248 -169z" />
<glyph unicode="q" horiz-adv-x="1288" d="M1243 700q-4 -80 -27.5 -158.5t-62.5 -152.5t-92 -139.5t-117 -116.5q27 -49 44.5 -93t33.5 -95q8 -33 -20 -48q-26 -14 -62 -15h-5q-40 1 -78 17.5t-46 45.5l-15 50q-7 24 -16 40q-84 -31 -170 -33h-14q-78 0 -153 21q-81 23 -154.5 69.5t-130.5 118.5q-68 82 -97 180 q-26 89 -25 180v20q3 101 34.5 200.5t87.5 185.5q45 84 106.5 160.5t137 138t164.5 103.5t190 55q27 0 59.5 -20.5t40.5 -47.5q10 -8 11 -15.5t1 -17.5q92 -31 165 -97.5t123 -153.5t73 -186q17 -73 16 -144q0 -26 -2 -52zM834 367q0 -16 7 -26.5t15 -27.5q92 90 142.5 213 t58.5 240q0 86 -24.5 160.5t-65.5 150.5q-25 43 -71 84t-105 51q-27 0 -51.5 9.5t-51.5 31.5q-61 -29 -115.5 -71.5t-100.5 -95t-86 -108.5t-73 -110q-33 -72 -57.5 -151.5t-28.5 -159.5q-1 -13 0 -27q0 -66 17 -131q20 -78 80 -143q37 -47 84 -71.5t98 -30.5q17 -2 34 -2 q35 0 70 8q53 12 103 41q-18 35 -33.5 68.5t-32.5 74.5q-18 39 4.5 56.5t59.5 18.5h5l68 -13q38 -14 50 -39z" />
<glyph unicode="r" horiz-adv-x="1409" d="M1262 633q-33 -82 -102.5 -141.5t-151.5 -100.5q8 -31 43 -70l71 -85q37 -45 67 -90.5t30 -86.5q0 -33 -19.5 -52t-48.5 -19q-47 0 -80 31.5t-63.5 83t-64.5 115t-81 126.5q-72 -16 -147.5 -28.5t-149.5 -12.5q-88 0 -157 21q-10 -66 -11.5 -132.5t-1.5 -136.5 q0 -29 -16.5 -41t-40.5 -12q-18 0 -40 7t-40 21.5t-29.5 32t-11.5 39.5v289q-12 0 -27.5 6t-30 16.5t-24.5 25t-10 30.5q0 27 34 41t58 14q0 166 1 333t11 333l-63 -23q-23 -8 -55 -8q-31 0 -67 18.5t-36 47.5q0 20 33 43q160 66 319.5 110.5t329.5 44.5q121 0 234.5 -37.5 t201.5 -107.5t141.5 -169t53.5 -224q0 -63 -14 -127t-45 -125zM1106 778q18 68 18 135q0 74 -24.5 144.5t-74.5 124t-125 86t-173 32.5q-76 0 -158 -11t-174 -46q10 -33 11.5 -65.5t1.5 -65.5v-666q63 -18 139 -18q100 0 191 22.5t165 67.5t126 110.5t77 149.5z" />
<glyph unicode="s" horiz-adv-x="1292" d="M1063 561q86 -33 143.5 -103.5t57.5 -162.5q0 -90 -55.5 -147.5t-134.5 -91t-167 -46t-155 -12.5q-78 0 -172.5 12.5t-186.5 44t-173 85t-132 134.5q-25 25 -3.5 46.5t46.5 29.5q35 -2 78 -8t67 -35q43 -51 91.5 -81.5t106.5 -46t132 -20.5t170 -5q20 0 63.5 9t87.5 30.5 t76.5 57.5t32.5 89q0 68 -31.5 95.5t-78.5 34.5q-25 4 -53 4q-24 0 -50 -3q-55 -6 -102 -6q-70 0 -147.5 1t-151.5 10t-140.5 31.5t-117.5 66.5t-81 113t-30 171q0 133 53.5 239.5t141.5 180.5t202.5 114t239.5 40q94 0 192.5 -23t178.5 -70t130 -122.5t50 -180.5 q0 -37 -22.5 -53t-61.5 -16q-45 0 -87 22.5t-42 61.5q0 25 -5 55.5t-17.5 59t-33 52t-52.5 33.5q-92 27 -179 27q-39 0 -75 -5q-121 -17 -211 -75.5t-143.5 -153t-53.5 -206.5q0 -94 39 -141.5t99.5 -66t133.5 -18.5h146q98 0 196.5 -8t190.5 -43z" />
<glyph unicode="t" horiz-adv-x="1212" d="M1161 1372q8 -14 13.5 -29.5t5.5 -29.5q0 -27 -35 -41.5t-83 -22.5t-97.5 -12t-79.5 -8q-47 -4 -68.5 -5t-39 -2t-40.5 -3l-67 -7q14 -212 14 -432q0 -73 -2 -147q-6 -297 -6 -590q0 -29 -16.5 -40t-41.5 -11q-23 0 -47 8t-45.5 22.5t-35 33t-13.5 40.5q0 285 -1 563v33 q0 262 16 522q-76 0 -165 -4q-32 -1 -64 -1q-54 0 -103 4q-78 7 -130.5 33t-52.5 87q0 12 9.5 28.5t36.5 16.5q72 0 143.5 -6t152.5 -6q41 0 81 1t87 1q4 20 20.5 29.5t39.5 9.5q18 0 34.5 -6t33 -13.5t34 -13.5t37.5 -6q57 6 96 13.5t74 12.5t74 10t98 9q35 0 70.5 -8 t62.5 -33z" />
<glyph unicode="u" horiz-adv-x="1355" d="M199 1323q8 33 41 42q17 5 35 5q16 0 32 -4q35 -8 60.5 -31.5t21.5 -56.5q-12 -84 -33 -158l-42 -146q-22 -73 -41 -146.5t-27 -157.5q-2 -28 -2 -59q0 -38 3 -77q5 -73 24.5 -141.5t56.5 -129t96 -97.5q51 -29 106 -30h7q52 0 102 17q53 17 102.5 47.5t85.5 65.5 q109 100 169.5 227.5t76.5 264.5q7 56 7 113q0 81 -14 163q-24 139 -81 266q-23 37 0 56.5t61 21.5q5 0 9 1q33 0 68 -13q40 -14 53 -43q92 -186 110 -364q5 -48 5 -98q0 -134 -36 -279q-43 -154 -140 -286t-232 -208q-68 -43 -146 -65.5t-156.5 -22.5t-153.5 23.5 t-138 74.5q-106 76 -160.5 168t-72.5 195q-10 60 -10 122q0 44 5 90q12 110 38 220.5t56.5 219t53.5 210.5z" />
<glyph unicode="v" horiz-adv-x="1404" d="M1161 1368q-4 33 22.5 43t60.5 3t64.5 -28.5t34.5 -52.5q0 -86 -11 -169t-46 -169q-35 -94 -76 -179l-82 -171q-94 -143 -199.5 -287.5t-240.5 -255.5q-47 -37 -104.5 -64.5t-117.5 -35.5q-22 -3 -44 -3q-38 0 -76 9q-59 14 -110 62q-43 37 -70 86t-42 104t-22.5 113.5 t-11.5 113.5q-3 74 -3 148q0 154 14 307q22 225 57 449q0 20 14 29.5t35 11.5q8 1 16 0l25 -1q20 -3 33 -8q27 -8 52 -33q19 -19 19 -48q0 -9 -2 -19q-6 -57 -19.5 -160.5t-24.5 -227.5t-17 -255q-4 -79 -4 -151q0 -48 2 -93q4 -113 23.5 -193.5t62.5 -105.5q76 20 135 68.5 t113 101.5q111 119 202.5 252t167.5 277q68 121 119 254t51 278z" />
<glyph unicode="w" horiz-adv-x="1355" d="M1163 1405q18 12 43 12q39 0 77 -24.5t38 -57.5q0 -16 -27.5 -58t-56.5 -95q-47 -90 -85 -192.5t-64.5 -209t-41 -214t-14.5 -206.5q0 -74 8.5 -147.5t26.5 -144.5q0 -35 -27.5 -44.5t-56.5 -9.5q-35 8 -61.5 25.5t-34.5 50.5l-28 130q-15 75 -34 156l-38 159 q-19 78 -39.5 140t-42 100t-41.5 38q-45 0 -88.5 -46t-81 -119t-67.5 -162t-50.5 -174t-28.5 -156q-5 -41 -5 -71q0 -22 3 -38q4 -27 -20.5 -37t-46.5 -10q-39 0 -76 21.5t-37 56.5q4 119 9 235.5t5 237.5q0 203 -23.5 417t-99.5 416q-4 12 -4 17q0 16 14.5 23.5t36.5 7.5 q31 0 62 -12.5t41 -35.5q72 -154 106.5 -317.5t42.5 -329.5q23 35 49.5 69t60.5 61.5t73 45t86 17.5q43 0 85 -14.5t77.5 -41t61 -64.5t38.5 -83q0 16 5 30.5t5 30.5q23 90 54 181l63 170q23 72 57.5 145.5t91.5 120.5z" />
<glyph unicode="x" horiz-adv-x="1304" d="M1137 137q12 -4 27.5 -12t27.5 -19.5t19 -25.5q5 -9 5 -19q0 -6 -2 -12q-10 -35 -43 -44q-17 -5 -32 -5q-13 0 -25 4q-125 16 -239.5 65.5t-215.5 123.5q-100 -74 -213.5 -126.5t-230.5 -62.5q-15 -4 -31 -4q-18 0 -38 5q-36 9 -52 44t1.5 56.5t41.5 21.5q217 53 389 178 l-81 93q-40 44 -74 96q-133 193 -206 417t-83 457q0 33 27.5 50.5t62.5 17.5t64.5 -17.5t33.5 -50.5q10 -217 69.5 -414.5t176.5 -382.5q33 -43 59.5 -82.5t61.5 -72.5q86 86 133 166q125 176 185.5 381.5t70.5 416.5q4 33 34 44q19 7 40 8q12 0 24 -2q35 -6 62.5 -29 t27.5 -55q-10 -225 -81.5 -448.5t-196.5 -416.5q-33 -49 -74 -93l-92 -95q82 -49 174.5 -94.5t192.5 -61.5z" />
<glyph unicode="y" horiz-adv-x="1273" d="M1032 1376q0 33 30 44q19 7 40 8q11 0 23 -3q34 -6 61.5 -27.5t23.5 -54.5q0 -135 -30.5 -283.5t-89 -292.5t-144.5 -277.5t-196.5 -236.5t-244.5 -170t-290 -77q-15 -4 -31 -4q-18 0 -38 5q-36 9 -52 44q-8 13 -8 24q0 13 10 23q18 20 54 31q98 27 198.5 62.5 t175.5 113.5q-41 41 -81 89t-72 98q-135 193 -202 415.5t-75 458.5q-4 33 22.5 49.5t60.5 16.5t63.5 -16.5t29.5 -49.5q16 -217 77 -419t177 -378q25 -41 56.5 -80.5t64.5 -72.5q35 33 67.5 74.5t65.5 91.5q117 174 177.5 380.5t76.5 413.5z" />
<glyph unicode="z" horiz-adv-x="1376" d="M1300 1399q8 -14 9 -27q0 -16 -15.5 -29.5t-38.5 -15.5q33 -23 33 -53q0 -16 -10 -27q-78 -109 -166 -205t-184 -191l-200 -193l-212 -205l-120 -146l-113 -145q115 0 218 7t203.5 16.5t198.5 16.5t201 7q18 0 40.5 -7t44 -19.5t36 -31t14.5 -40.5q0 -20 -15.5 -37 t-39.5 -17l-405 -40q-206 -19 -404 -19q-45 0 -99.5 5t-102.5 20.5t-80 45t-32 81.5q0 45 27 94t63.5 97t76.5 91t67 78q96 106 197 203l202 188l203 186q100 94 197 199q-49 -6 -116 -11t-140.5 -8t-152.5 -4t-155 -1q-104 0 -191 3t-140 9q-8 0 -21.5 8t-26 20.5t-21.5 28 t-9 29.5q0 12 10 23.5t24.5 20.5t30 15t25.5 6q20 0 63 -2t99.5 -4t125 -4t142.5 -2q80 0 160 1t151.5 3t132 6t99.5 9q20 4 35 4q25 0 47 -9.5t34 -27.5z" />
<glyph unicode="&#xaa;" d="M1227 461q18 -6 41.5 -25.5t23.5 -42.5q0 -31 -33.5 -49t-62.5 -18q-23 0 -32 5t-40 5l68 -132q33 -67 57 -134q4 -12 4 -19q0 -25 -23.5 -36t-55.5 -11q-39 0 -72 14.5t-43 38.5q-33 78 -72 152t-63 149q-53 0 -105.5 -9t-104.5 -19.5t-104.5 -19.5t-103.5 -9h-16 q-15 0 -33.5 6t-34.5 19.5t-16 38.5q0 29 30.5 49t77.5 34.5t104.5 22.5t109.5 12t93 6.5t58 4.5q-41 174 -94.5 346t-139.5 338l-99 -297l-100 -297q-10 -27 -24 -81t-34.5 -120t-46.5 -134.5t-54.5 -125.5t-62.5 -93t-70 -36q-20 0 -44 7t-42.5 18.5t-27.5 25.5 q-5 8 -5 16q0 7 4 15l138 296q69 153 127 308.5t105.5 312t77.5 310.5q-4 6 -6 4t-2 4q0 10 3 30.5t11.5 41t22.5 36t37 15.5q18 0 39.5 -6.5t40.5 -14.5q106 -82 172.5 -190.5t113 -230.5t82 -250t80.5 -248q33 -8 72 -16.5z" />
<glyph unicode="&#xba;" d="M1266 860q10 -57 10 -108q0 -139 -55.5 -274.5t-148.5 -241t-214 -170t-250 -64.5q-115 0 -215 47t-177 125t-121 181.5t-44 217.5q0 106 32 207t85 195q45 80 108.5 162t142.5 147.5t171 107.5t190 42q35 0 54.5 -12.5t31 -28t21.5 -30.5t26 -24q76 -33 135.5 -85 t103.5 -114.5t73 -134t41 -145.5zM1071 692q4 23 6 47.5t2 46.5q0 66 -15 127.5t-42 120.5q-45 80 -87 114t-80 48t-72.5 23.5t-65.5 40.5q-88 -39 -173 -116t-151.5 -174.5t-107.5 -209t-41 -217.5q0 -6 3 -37t14 -75t31.5 -93t54.5 -91t84 -69.5t122 -27.5q102 0 189 50 t153 129t111 175t65 188z" />
<glyph unicode="&#x152;" horiz-adv-x="2603" d="M2363 160q14 0 34 -7.5t37 -19.5t29.5 -29.5t12.5 -37.5t-13.5 -34t-33.5 -14q-174 0 -342 -7t-346 -7h-105q-59 0 -113.5 8t-92 29.5t-37.5 64.5q0 18 17 25.5t40 7.5q0 145 -1 292t-1 296q0 117 2 233.5t10 233.5q0 23 14.5 34t34.5 11q37 0 77 -26.5t40 -63.5v-670 q82 0 165 11.5t175 11.5q16 0 36.5 -6.5t39 -18.5t31 -29.5t12.5 -39.5q0 -16 -12.5 -27.5t-28.5 -11.5q-72 -8 -154 -19.5t-161 -11.5q-29 0 -53.5 2t-49.5 6v-207q84 0 162 5l150 11l145 10q72 5 143 5q35 0 68.5 -3t68.5 -7zM2406 1413q16 -4 35 -10t35 -16.5t27.5 -25.5 t11.5 -36q0 -27 -22.5 -42t-45.5 -15q-78 0 -154.5 -1t-154.5 -1q-152 0 -307.5 -4.5t-306.5 -4.5q-31 0 -61.5 3.5t-57.5 13.5t-43 26.5t-16 45.5q0 14 10 27t39 18q147 23 296.5 31t297.5 8q106 0 209.5 -4.5t207.5 -12.5zM1266 860q10 -57 10 -108q0 -139 -55.5 -274.5 t-148.5 -241t-214 -170t-250 -64.5q-115 0 -215 47t-177 125t-121 181.5t-44 217.5q0 106 32 207t85 195q45 80 108.5 162t142.5 147.5t171 107.5t190 42q35 0 54.5 -12.5t31 -28t21.5 -30.5t26 -24q76 -33 135.5 -85t103.5 -114.5t73 -134t41 -145.5zM1071 692q4 23 6 47.5 t2 46.5q0 66 -15 127.5t-42 120.5q-45 80 -87 114t-80 48t-72.5 23.5t-65.5 40.5q-88 -39 -173 -116t-151.5 -174.5t-107.5 -209t-41 -217.5q0 -6 3 -37t14 -75t31.5 -93t54.5 -91t84 -69.5t122 -27.5q102 0 189 50t153 129t111 175t65 188z" />
<glyph unicode="&#x153;" horiz-adv-x="2603" d="M2363 160q14 0 34 -7.5t37 -19.5t29.5 -29.5t12.5 -37.5t-13.5 -34t-33.5 -14q-174 0 -342 -7t-346 -7h-105q-59 0 -113.5 8t-92 29.5t-37.5 64.5q0 18 17 25.5t40 7.5q0 145 -1 292t-1 296q0 117 2 233.5t10 233.5q0 23 14.5 34t34.5 11q37 0 77 -26.5t40 -63.5v-670 q82 0 165 11.5t175 11.5q16 0 36.5 -6.5t39 -18.5t31 -29.5t12.5 -39.5q0 -16 -12.5 -27.5t-28.5 -11.5q-72 -8 -154 -19.5t-161 -11.5q-29 0 -53.5 2t-49.5 6v-207q84 0 162 5l150 11l145 10q72 5 143 5q35 0 68.5 -3t68.5 -7zM2406 1413q16 -4 35 -10t35 -16.5t27.5 -25.5 t11.5 -36q0 -27 -22.5 -42t-45.5 -15q-78 0 -154.5 -1t-154.5 -1q-152 0 -307.5 -4.5t-306.5 -4.5q-31 0 -61.5 3.5t-57.5 13.5t-43 26.5t-16 45.5q0 14 10 27t39 18q147 23 296.5 31t297.5 8q106 0 209.5 -4.5t207.5 -12.5zM1266 860q10 -57 10 -108q0 -139 -55.5 -274.5 t-148.5 -241t-214 -170t-250 -64.5q-115 0 -215 47t-177 125t-121 181.5t-44 217.5q0 106 32 207t85 195q45 80 108.5 162t142.5 147.5t171 107.5t190 42q35 0 54.5 -12.5t31 -28t21.5 -30.5t26 -24q76 -33 135.5 -85t103.5 -114.5t73 -134t41 -145.5zM1071 692q4 23 6 47.5 t2 46.5q0 66 -15 127.5t-42 120.5q-45 80 -87 114t-80 48t-72.5 23.5t-65.5 40.5q-88 -39 -173 -116t-151.5 -174.5t-107.5 -209t-41 -217.5q0 -6 3 -37t14 -75t31.5 -93t54.5 -91t84 -69.5t122 -27.5q102 0 189 50t153 129t111 175t65 188z" />
<glyph unicode="&#x2000;" horiz-adv-x="720" />
<glyph unicode="&#x2001;" horiz-adv-x="1443" />
<glyph unicode="&#x2002;" horiz-adv-x="720" />
<glyph unicode="&#x2003;" horiz-adv-x="1443" />
<glyph unicode="&#x2004;" horiz-adv-x="481" />
<glyph unicode="&#x2005;" horiz-adv-x="360" />
<glyph unicode="&#x2006;" horiz-adv-x="239" />
<glyph unicode="&#x2007;" horiz-adv-x="239" />
<glyph unicode="&#x2008;" horiz-adv-x="180" />
<glyph unicode="&#x2009;" horiz-adv-x="288" />
<glyph unicode="&#x200a;" horiz-adv-x="79" />
<glyph unicode="&#x2013;" horiz-adv-x="1024" d="M205 512v205h614v-205h-614z" />
<glyph unicode="&#x2014;" horiz-adv-x="2048" d="M205 512v205h1638v-205h-1638z" />
<glyph unicode="&#x202f;" horiz-adv-x="288" />
<glyph unicode="&#x205f;" horiz-adv-x="360" />
<glyph unicode="&#x2122;" horiz-adv-x="2564" d="M2480 82q4 -8 4 -21q0 -20 -13.5 -31.5t-30 -17.5t-31.5 -8t-19 -2q-63 0 -104.5 61.5t-65 148.5t-32.5 182t-9 165q-59 -100 -159.5 -155.5t-211.5 -55.5q-84 0 -164 35t-143 109q0 -78 3 -155t3 -153q0 -29 1 -61.5t-3 -62t-17.5 -49t-39.5 -19.5q-20 0 -44 9 t-44.5 23.5t-34 34t-13.5 37.5v817q0 96 -3 208t-19 204q-23 23 -23 43q0 29 24.5 46.5t53.5 17.5q61 0 91 -40t42.5 -97.5t14.5 -122t8 -113.5q14 -66 32.5 -162t46 -186t70.5 -154.5t107 -64.5q76 0 138 48t110.5 120.5t83 155.5t57.5 153q41 111 69.5 212t63.5 212 q6 23 26.5 32t43.5 9q20 0 41.5 -7.5t40 -18.5t30 -27.5t11.5 -34.5q0 -8 -5 -21q-49 -176 -68.5 -362.5t-19.5 -370.5q0 -61 3.5 -129t13.5 -134.5t29.5 -130t54.5 -116.5zM1161 1372q8 -14 13.5 -29.5t5.5 -29.5q0 -27 -35 -41.5t-83 -22.5t-97.5 -12t-79.5 -8 q-47 -4 -68.5 -5t-39 -2t-40.5 -3l-67 -7q14 -212 14 -432q0 -73 -2 -147q-6 -297 -6 -590q0 -29 -16.5 -40t-41.5 -11q-23 0 -47 8t-45.5 22.5t-35 33t-13.5 40.5q0 285 -1 563v33q0 262 16 522q-76 0 -165 -4q-32 -1 -64 -1q-54 0 -103 4q-78 7 -130.5 33t-52.5 87 q0 12 9.5 28.5t36.5 16.5q72 0 143.5 -6t152.5 -6q41 0 81 1t87 1q4 20 20.5 29.5t39.5 9.5q18 0 34.5 -6t33 -13.5t34 -13.5t37.5 -6q57 6 96 13.5t74 12.5t74 10t98 9q35 0 70.5 -8t62.5 -33z" />
<glyph unicode="&#xe000;" horiz-adv-x="1435" d="M0 1435h1435v-1435h-1435v1435z" />
<glyph unicode="&#xfb01;" horiz-adv-x="1769" d="M1392 1339v35q4 39 34 50q16 6 34 7q15 0 31 -5q35 -9 62.5 -32.5t27.5 -54.5v-1292q0 -35 -32 -44q-16 -5 -33 -5t-36 5q-37 9 -68.5 33.5t-31.5 55.5zM1047 1403q16 0 35.5 -4t36 -13.5t27.5 -24.5t11 -36q0 -35 -31.5 -51.5t-56.5 -16.5q-113 23 -223 25q-25 0 -49 1 l-172 -6q-111 -7 -221.5 -17.5t-223.5 -10.5q-33 0 -69.5 1t-68.5 9.5t-53.5 26t-21.5 47.5q0 16 13.5 29.5t42.5 17.5q154 18 319.5 32.5t331.5 14.5q98 0 190.5 -5t182.5 -19zM602 489q16 0 36.5 -7t39 -19t31 -29.5t12.5 -38.5q0 -27 -35 -42t-85 -22t-105.5 -9.5 t-94.5 -2.5q-37 0 -73.5 3.5t-71.5 11.5v-279q0 -25 -16.5 -36t-40.5 -11q-20 0 -44 7.5t-43.5 20.5t-31.5 29.5t-12 34.5v546q0 267 10 544q4 25 20.5 36t38.5 11q18 0 40 -7t39 -19.5t28.5 -29t11.5 -34.5v-680q86 0 169 9t177 13z" />
<glyph unicode="&#xfb02;" horiz-adv-x="2277" d="M2201 207q5 -11 6 -26q0 -8 -2 -16q-4 -26 -39 -26l-194 -33l-195 -32q-98 -25 -192 -42l-195 -36q-6 -1 -12 -1q-20 0 -42 10q-30 13 -47 34q-16 19 -17 38q0 21 38 32q2 0 6 2q8 4 9 8v168q0 274 1 548.5t9 548.5q0 33 27 41q13 4 26 4q16 0 33 -5q33 -9 59.5 -31.5 t26.5 -53.5q6 -43 6 -77v-78q0 -260 -1 -515t-11 -515q49 16 99 24t99 19l191 32l199 33q27 0 60.5 -14t51.5 -41zM1047 1403q16 0 35.5 -4t36 -13.5t27.5 -24.5t11 -36q0 -35 -31.5 -51.5t-56.5 -16.5q-113 23 -223 25q-25 0 -49 1l-172 -6q-111 -7 -221.5 -17.5 t-223.5 -10.5q-33 0 -69.5 1t-68.5 9.5t-53.5 26t-21.5 47.5q0 16 13.5 29.5t42.5 17.5q154 18 319.5 32.5t331.5 14.5q98 0 190.5 -5t182.5 -19zM602 489q16 0 36.5 -7t39 -19t31 -29.5t12.5 -38.5q0 -27 -35 -42t-85 -22t-105.5 -9.5t-94.5 -2.5q-37 0 -73.5 3.5 t-71.5 11.5v-279q0 -25 -16.5 -36t-40.5 -11q-20 0 -44 7.5t-43.5 20.5t-31.5 29.5t-12 34.5v546q0 267 10 544q4 25 20.5 36t38.5 11q18 0 40 -7t39 -19.5t28.5 -29t11.5 -34.5v-680q86 0 169 9t177 13z" />
<glyph unicode="&#xfb03;" horiz-adv-x="2979" d="M2603 1339v35q4 39 34 50q16 6 34 7q15 0 31 -5q35 -9 62.5 -32.5t27.5 -54.5v-1292q0 -35 -32 -44q-16 -5 -33 -5t-36 5q-37 9 -68.5 33.5t-31.5 55.5zM2257 1403q16 0 35.5 -4t36 -13.5t27.5 -24.5t11 -36q0 -35 -31.5 -51.5t-56.5 -16.5q-113 23 -223 25q-25 0 -49 1 l-172 -6q-111 -7 -221.5 -17.5t-223.5 -10.5q-33 0 -69.5 1t-68.5 9.5t-53.5 26t-21.5 47.5q0 16 13.5 29.5t42.5 17.5q154 18 319.5 32.5t331.5 14.5q98 0 190.5 -5t182.5 -19zM1812 489q16 0 36.5 -7t39 -19t31 -29.5t12.5 -38.5q0 -27 -35 -42t-85 -22t-105.5 -9.5 t-94.5 -2.5q-37 0 -73.5 3.5t-71.5 11.5v-279q0 -25 -16.5 -36t-40.5 -11q-20 0 -44 7.5t-43.5 20.5t-31.5 29.5t-12 34.5v546q0 267 10 544q4 25 20.5 36t38.5 11q18 0 40 -7t39 -19.5t28.5 -29t11.5 -34.5v-680q86 0 169 9t177 13zM1047 1403q16 0 35.5 -4t36 -13.5 t27.5 -24.5t11 -36q0 -35 -31.5 -51.5t-56.5 -16.5q-113 23 -223 25q-25 0 -49 1l-172 -6q-111 -7 -221.5 -17.5t-223.5 -10.5q-33 0 -69.5 1t-68.5 9.5t-53.5 26t-21.5 47.5q0 16 13.5 29.5t42.5 17.5q154 18 319.5 32.5t331.5 14.5q98 0 190.5 -5t182.5 -19zM602 489 q16 0 36.5 -7t39 -19t31 -29.5t12.5 -38.5q0 -27 -35 -42t-85 -22t-105.5 -9.5t-94.5 -2.5q-37 0 -73.5 3.5t-71.5 11.5v-279q0 -25 -16.5 -36t-40.5 -11q-20 0 -44 7.5t-43.5 20.5t-31.5 29.5t-12 34.5v546q0 267 10 544q4 25 20.5 36t38.5 11q18 0 40 -7t39 -19.5 t28.5 -29t11.5 -34.5v-680q86 0 169 9t177 13z" />
<glyph unicode="&#xfb04;" horiz-adv-x="3487" d="M3412 207q5 -11 6 -26q0 -8 -2 -16q-4 -26 -39 -26l-194 -33l-195 -32q-98 -25 -192 -42l-195 -36q-6 -1 -12 -1q-20 0 -42 10q-30 13 -47 34q-16 19 -17 38q0 21 38 32q2 0 6 2q8 4 9 8v168q0 274 1 548.5t9 548.5q0 33 27 41q13 4 26 4q16 0 33 -5q33 -9 59.5 -31.5 t26.5 -53.5q6 -43 6 -77v-78q0 -260 -1 -515t-11 -515q49 16 99 24t99 19l191 32l199 33q27 0 60.5 -14t51.5 -41zM2257 1403q16 0 35.5 -4t36 -13.5t27.5 -24.5t11 -36q0 -35 -31.5 -51.5t-56.5 -16.5q-113 23 -223 25q-25 0 -49 1l-172 -6q-111 -7 -221.5 -17.5 t-223.5 -10.5q-33 0 -69.5 1t-68.5 9.5t-53.5 26t-21.5 47.5q0 16 13.5 29.5t42.5 17.5q154 18 319.5 32.5t331.5 14.5q98 0 190.5 -5t182.5 -19zM1812 489q16 0 36.5 -7t39 -19t31 -29.5t12.5 -38.5q0 -27 -35 -42t-85 -22t-105.5 -9.5t-94.5 -2.5q-37 0 -73.5 3.5 t-71.5 11.5v-279q0 -25 -16.5 -36t-40.5 -11q-20 0 -44 7.5t-43.5 20.5t-31.5 29.5t-12 34.5v546q0 267 10 544q4 25 20.5 36t38.5 11q18 0 40 -7t39 -19.5t28.5 -29t11.5 -34.5v-680q86 0 169 9t177 13zM1047 1403q16 0 35.5 -4t36 -13.5t27.5 -24.5t11 -36 q0 -35 -31.5 -51.5t-56.5 -16.5q-113 23 -223 25q-25 0 -49 1l-172 -6q-111 -7 -221.5 -17.5t-223.5 -10.5q-33 0 -69.5 1t-68.5 9.5t-53.5 26t-21.5 47.5q0 16 13.5 29.5t42.5 17.5q154 18 319.5 32.5t331.5 14.5q98 0 190.5 -5t182.5 -19zM602 489q16 0 36.5 -7t39 -19 t31 -29.5t12.5 -38.5q0 -27 -35 -42t-85 -22t-105.5 -9.5t-94.5 -2.5q-37 0 -73.5 3.5t-71.5 11.5v-279q0 -25 -16.5 -36t-40.5 -11q-20 0 -44 7.5t-43.5 20.5t-31.5 29.5t-12 34.5v546q0 267 10 544q4 25 20.5 36t38.5 11q18 0 40 -7t39 -19.5t28.5 -29t11.5 -34.5v-680 q86 0 169 9t177 13z" />
</font>
</defs>
</svg>
